<?xml version="1.0" encoding="UTF-8" standalone="no"?>
<svg
   xmlns:dc="http://purl.org/dc/elements/1.1/"
   xmlns:cc="http://creativecommons.org/ns#"
   xmlns:rdf="http://www.w3.org/1999/02/22-rdf-syntax-ns#"
   xmlns:svg="http://www.w3.org/2000/svg"
   xmlns="http://www.w3.org/2000/svg"
   viewBox="0 0 1087.8827 546.64667"
   height="546.64667"
   width="1087.8827"
   xml:space="preserve"
   id="svg2"
   version="1.1"><metadata
     id="metadata8"><rdf:RDF><cc:Work
         rdf:about=""><dc:format>image/svg+xml</dc:format><dc:type
           rdf:resource="http://purl.org/dc/dcmitype/StillImage" /></cc:Work></rdf:RDF></metadata><defs
     id="defs6"><clipPath
       id="clipPath18"
       clipPathUnits="userSpaceOnUse"><path
         id="path16"
         d="M 0,409.985 H 815.912 V 0 H 0 Z" /></clipPath></defs><g
     transform="matrix(1.3333333,0,0,-1.3333333,0,546.64667)"
     id="g10"><g
       id="g12"><g
         clip-path="url(#clipPath18)"
         id="g14"><g
           transform="translate(210.6855,343.0898)"
           id="g20"><path
             id="path22"
             style="fill:#263d86;fill-opacity:1;fill-rule:nonzero;stroke:none"
             d="m 0,0 c 31.2,0 60.131,-9.678 83.758,-26.145 -141.247,3.199 -212.17,-50.288 -212.17,-50.288 C -104.413,-31.035 -55.941,0 0,0 m 72.883,-75.133 c 40.279,0 79.053,-5.819 115.391,-16.549 C 166.051,-10.854 90.506,48.657 0.723,48.657 c -107.282,0 -194.239,-84.913 -194.239,-189.656 0,-11.268 1.053,-22.307 2.993,-33.017 67.498,61.101 160.582,98.883 263.406,98.883" /></g><g
           transform="translate(287.6953,187.0264)"
           id="g24"><path
             id="path26"
             style="fill:#263d86;fill-opacity:1;fill-rule:nonzero;stroke:none"
             d="m 0,0 c 40.238,0 78.744,-7.449 114.359,-21.068 2.312,11.7 3.591,23.771 3.591,36.132 0,5.138 -0.288,10.194 -0.701,15.229 C 82.004,40.321 44.531,45.789 5.613,45.789 c -102.72,0 -195.744,-37.721 -263.22,-98.738 6.459,-16.405 15.291,-31.655 25.918,-45.5 C -172.262,-37.617 -90.402,0 0,0" /></g><g
           transform="translate(214.5859,64.207)"
           id="g28"><path
             id="path30"
             style="fill:#263d86;fill-opacity:1;fill-rule:nonzero;stroke:none"
             d="M 0,0 C -17.891,0 -35.039,3.198 -50.846,9.018 -62.627,13.33 28.477,58.067 100.41,39.681 74.431,15.125 39.021,0 0,0 m 81.715,87.698 c -84.336,0 -161.201,-32.747 -219.393,-86.522 34.873,-32.769 82.252,-52.949 134.5,-52.949 83.717,0 155.073,51.752 182.352,124.264 -30.809,9.843 -63.515,15.207 -97.459,15.207" /></g><path
           id="path32"
           style="fill:#263d86;fill-opacity:1;fill-rule:nonzero;stroke:none"
           d="m 477.063,153.659 h 8.563 v -29.467 h -8.563 z" /><g
           transform="translate(494.8105,124.1924)"
           id="g34"><path
             id="path36"
             style="fill:#263d86;fill-opacity:1;fill-rule:nonzero;stroke:none"
             d="M 0,0 V 29.467 H 8.191 L 19.933,14.321 c 0.227,-0.309 0.598,-0.928 1.114,-1.857 0.515,-0.929 1.073,-2.043 1.713,-3.343 -0.186,1.218 -0.289,2.312 -0.371,3.261 -0.104,0.949 -0.124,1.795 -0.124,2.538 v 14.547 h 8.13 V 0 h -8.13 L 10.502,15.229 c -0.227,0.31 -0.598,0.929 -1.113,1.857 -0.537,0.929 -1.094,2.022 -1.693,3.281 0.165,-1.238 0.288,-2.332 0.371,-3.281 0.062,-0.928 0.124,-1.795 0.124,-2.537 L 8.191,0 Z" /></g><g
           transform="translate(535.6055,133.7266)"
           id="g38"><path
             id="path40"
             style="fill:#263d86;fill-opacity:1;fill-rule:nonzero;stroke:none"
             d="m 0,0 c 1.279,-1.342 2.518,-2.373 3.734,-3.034 1.239,-0.681 2.456,-1.011 3.674,-1.011 1.113,0 2.063,0.289 2.785,0.847 0.723,0.597 1.094,1.32 1.094,2.207 0,0.97 -0.309,1.734 -0.928,2.25 C 9.698,1.815 8.274,2.353 6.066,2.909 3.033,3.693 0.867,4.704 -0.371,5.942 -1.65,7.201 -2.27,8.914 -2.27,11.081 c 0,2.807 0.991,5.097 2.951,6.892 2.002,1.774 4.601,2.662 7.758,2.662 1.713,0 3.323,-0.228 4.871,-0.66 1.547,-0.434 2.992,-1.094 4.374,-1.982 l -2.663,-5.757 c -0.968,0.764 -1.939,1.363 -2.95,1.734 -1.01,0.412 -2.022,0.598 -3.012,0.598 -1.032,0 -1.858,-0.206 -2.497,-0.68 C 5.943,13.433 5.633,12.835 5.633,12.112 5.633,11.37 5.901,10.771 6.459,10.338 7.016,9.884 8.089,9.472 9.698,9.079 L 10.07,8.976 c 3.467,-0.887 5.737,-1.857 6.83,-2.93 0.722,-0.723 1.3,-1.589 1.671,-2.6 0.392,-1.011 0.578,-2.146 0.578,-3.364 0,-3.136 -1.093,-5.633 -3.239,-7.552 -2.168,-1.878 -5.076,-2.827 -8.668,-2.827 -2.166,0 -4.146,0.351 -5.922,1.031 -1.795,0.703 -3.487,1.796 -5.137,3.282 z" /></g><g
           transform="translate(566.3311,124.1924)"
           id="g42"><path
             id="path44"
             style="fill:#263d86;fill-opacity:1;fill-rule:nonzero;stroke:none"
             d="m 0,0 v 22.514 h -6.954 v 6.953 h 22.43 V 22.514 H 8.501 V 0 Z" /></g><path
           id="path46"
           style="fill:#263d86;fill-opacity:1;fill-rule:nonzero;stroke:none"
           d="m 588.493,153.659 h 8.584 v -29.467 h -8.584 z" /><g
           transform="translate(610.7168,124.1924)"
           id="g48"><path
             id="path50"
             style="fill:#263d86;fill-opacity:1;fill-rule:nonzero;stroke:none"
             d="m 0,0 v 22.514 h -6.954 v 6.953 H 15.455 V 22.514 H 8.48 L 8.48,0 Z" /></g><g
           transform="translate(632.4863,153.6592)"
           id="g52"><path
             id="path54"
             style="fill:#263d86;fill-opacity:1;fill-rule:nonzero;stroke:none"
             d="m 0,0 h 8.461 v -14.32 c 0,-2.105 0.041,-3.612 0.144,-4.539 0.124,-0.929 0.29,-1.693 0.579,-2.312 0.35,-0.743 0.886,-1.321 1.712,-1.713 0.805,-0.391 1.774,-0.598 2.951,-0.598 1.155,0 2.126,0.207 2.93,0.598 0.826,0.392 1.362,0.97 1.713,1.713 0.288,0.619 0.453,1.383 0.577,2.312 0.103,0.927 0.165,2.434 0.165,4.539 V -12.298 0 h 8.44 v -15.579 c 0,-3.219 -0.206,-5.612 -0.619,-7.14 -0.412,-1.527 -1.094,-2.847 -2.063,-3.941 -1.074,-1.196 -2.539,-2.084 -4.396,-2.683 -1.857,-0.598 -4.106,-0.886 -6.747,-0.886 -2.662,0 -4.911,0.288 -6.769,0.886 -1.857,0.599 -3.322,1.487 -4.394,2.683 -0.95,1.094 -1.631,2.414 -2.065,3.941 C 0.187,-21.191 0,-18.798 0,-15.579 v 3.054 z" /></g><g
           transform="translate(673.4268,124.1924)"
           id="g56"><path
             id="path58"
             style="fill:#263d86;fill-opacity:1;fill-rule:nonzero;stroke:none"
             d="m 0,0 v 22.514 h -6.975 v 6.953 H 15.456 V 22.514 H 8.481 L 8.481,0 Z" /></g><g
           transform="translate(709.9297,130.2178)"
           id="g60"><path
             id="path62"
             style="fill:#263d86;fill-opacity:1;fill-rule:nonzero;stroke:none"
             d="m 0,0 c 2.354,0 4.293,0.826 5.82,2.456 1.547,1.63 2.311,3.694 2.311,6.19 0,2.477 -0.764,4.541 -2.332,6.191 C 4.23,16.488 2.291,17.313 0,17.313 c -2.352,0 -4.312,-0.825 -5.84,-2.476 -1.526,-1.63 -2.289,-3.693 -2.289,-6.191 0,-2.517 0.742,-4.581 2.248,-6.21 C -4.354,0.826 -2.393,0 0,0 M 16.592,8.646 C 16.592,6.542 16.199,4.54 15.373,2.704 14.549,0.847 13.352,-0.805 11.783,-2.27 10.194,-3.714 8.398,-4.828 6.336,-5.612 4.313,-6.396 2.188,-6.788 0,-6.788 c -2.229,0 -4.354,0.392 -6.396,1.176 -2.022,0.784 -3.818,1.898 -5.366,3.342 -1.588,1.465 -2.806,3.137 -3.631,4.995 -0.826,1.857 -1.238,3.837 -1.238,5.921 0,2.106 0.412,4.107 1.238,5.944 0.825,1.877 2.043,3.528 3.631,4.993 1.548,1.444 3.344,2.56 5.366,3.343 2.042,0.784 4.167,1.177 6.396,1.177 2.209,0 4.313,-0.393 6.377,-1.177 2.043,-0.783 3.838,-1.899 5.406,-3.343 1.548,-1.465 2.744,-3.116 3.59,-4.973 0.826,-1.857 1.219,-3.858 1.219,-5.964" /></g><g
           transform="translate(758.5469,130.8164)"
           id="g64"><path
             id="path66"
             style="fill:#263d86;fill-opacity:1;fill-rule:nonzero;stroke:none"
             d="m 0,0 h 1.424 c 3.342,0 5.757,0.64 7.283,1.94 1.527,1.28 2.312,3.343 2.312,6.149 0,2.807 -0.785,4.89 -2.312,6.191 -1.526,1.321 -3.941,1.981 -7.283,1.981 l -1.424,0 z m -8.379,-6.624 v 29.467 h 6.459 c 4.829,0 8.254,-0.227 10.277,-0.66 1.981,-0.412 3.755,-1.135 5.282,-2.146 1.961,-1.3 3.447,-2.951 4.478,-4.994 1.012,-2.022 1.506,-4.354 1.506,-6.954 0,-2.6 -0.494,-4.91 -1.506,-6.933 C 17.086,-0.887 15.6,-2.559 13.639,-3.858 12.133,-4.849 10.42,-5.551 8.48,-5.983 6.541,-6.396 3.569,-6.624 -0.475,-6.624 H -1.92 Z" /></g><g
           transform="translate(785.8467,124.1924)"
           id="g68"><path
             id="path70"
             style="fill:#263d86;fill-opacity:1;fill-rule:nonzero;stroke:none"
             d="M 0,0 V 29.467 H 19.046 V 23.009 H 8.254 V 17.891 H 18.448 V 11.576 H 8.254 V 6.624 H 19.046 V 0 Z" /></g><g
           transform="translate(491.6318,83.8311)"
           id="g72"><path
             id="path74"
             style="fill:#9e9fa1;fill-opacity:1;fill-rule:nonzero;stroke:none"
             d="m 0,0 v 6.17 h 16.653 c 0.02,-0.186 0.041,-0.413 0.041,-0.66 V 4.457 c 0,-5.076 -1.404,-9.018 -4.23,-11.804 -2.827,-2.805 -6.81,-4.209 -11.928,-4.209 -2.517,0 -4.765,0.371 -6.726,1.074 -1.961,0.721 -3.715,1.815 -5.262,3.3 -1.465,1.404 -2.621,3.076 -3.426,4.994 -0.825,1.919 -1.217,3.942 -1.217,6.046 0,2.208 0.392,4.21 1.197,6.067 0.784,1.837 1.94,3.509 3.549,4.973 1.527,1.445 3.323,2.518 5.344,3.26 2.023,0.743 4.21,1.114 6.541,1.114 3.055,0 5.737,-0.577 8.09,-1.711 2.332,-1.135 4.312,-2.828 5.901,-5.098 L 7.181,9.141 c -0.867,1.134 -1.857,1.981 -2.971,2.539 -1.094,0.556 -2.332,0.824 -3.674,0.824 -2.558,0 -4.518,-0.805 -6.004,-2.393 -1.445,-1.61 -2.167,-3.797 -2.167,-6.583 0,-2.786 0.722,-4.993 2.167,-6.603 1.486,-1.61 3.446,-2.414 6.004,-2.414 2.147,0 3.942,0.495 5.387,1.485 C 7.366,-2.992 8.192,-1.672 8.44,0 Z" /></g><g
           transform="translate(521.3672,72.9766)"
           id="g76"><path
             id="path78"
             style="fill:#9e9fa1;fill-opacity:1;fill-rule:nonzero;stroke:none"
             d="M 0,0 V 29.467 H 19.025 V 23.009 H 8.254 V 17.891 H 18.428 V 11.576 H 8.254 V 6.604 H 19.025 V 0 Z" /></g><g
           transform="translate(569.1582,79.002)"
           id="g80"><path
             id="path82"
             style="fill:#9e9fa1;fill-opacity:1;fill-rule:nonzero;stroke:none"
             d="m 0,0 c 2.352,0 4.312,0.805 5.84,2.456 1.526,1.63 2.29,3.693 2.29,6.19 0,2.476 -0.764,4.519 -2.331,6.191 -1.549,1.63 -3.488,2.455 -5.799,2.455 -2.353,0 -4.293,-0.825 -5.84,-2.455 -1.527,-1.65 -2.291,-3.715 -2.291,-6.191 0,-2.517 0.764,-4.581 2.27,-6.211 C -4.334,0.805 -2.395,0 0,0 M 16.611,8.646 C 16.611,6.521 16.178,4.54 15.394,2.703 14.568,0.847 13.351,-0.825 11.803,-2.27 10.193,-3.714 8.398,-4.828 6.355,-5.634 4.333,-6.417 2.188,-6.81 0,-6.81 c -2.208,0 -4.334,0.393 -6.377,1.176 -2.021,0.806 -3.816,1.92 -5.365,3.364 -1.588,1.445 -2.806,3.117 -3.653,4.994 -0.824,1.857 -1.257,3.838 -1.257,5.922 0,2.105 0.433,4.085 1.257,5.943 0.847,1.857 2.065,3.508 3.653,4.994 1.549,1.424 3.344,2.559 5.365,3.343 2.043,0.784 4.169,1.176 6.377,1.176 2.207,0 4.333,-0.392 6.396,-1.176 2.043,-0.784 3.838,-1.919 5.407,-3.343 1.548,-1.465 2.744,-3.116 3.57,-4.973 0.805,-1.879 1.238,-3.859 1.238,-5.964" /></g><g
           transform="translate(613.709,83.8311)"
           id="g84"><path
             id="path86"
             style="fill:#9e9fa1;fill-opacity:1;fill-rule:nonzero;stroke:none"
             d="M 0,0 V 6.17 H 16.652 C 16.674,5.984 16.693,5.757 16.693,5.51 V 4.457 c 0,-5.076 -1.402,-9.018 -4.23,-11.804 -2.826,-2.805 -6.809,-4.209 -11.947,-4.209 -2.518,0 -4.746,0.371 -6.706,1.074 -1.96,0.721 -3.736,1.815 -5.263,3.3 -1.485,1.404 -2.62,3.076 -3.445,4.994 -0.805,1.919 -1.198,3.942 -1.198,6.046 0,2.208 0.393,4.21 1.177,6.067 0.805,1.837 1.96,3.509 3.569,4.973 1.548,1.445 3.323,2.518 5.345,3.26 2.023,0.743 4.21,1.114 6.521,1.114 3.054,0 5.757,-0.577 8.089,-1.711 2.332,-1.135 4.313,-2.828 5.922,-5.098 L 7.182,9.141 c -0.888,1.134 -1.858,1.981 -2.952,2.539 -1.134,0.556 -2.332,0.824 -3.714,0.824 -2.537,0 -4.519,-0.805 -5.985,-2.393 -1.465,-1.61 -2.187,-3.797 -2.187,-6.583 0,-2.786 0.722,-4.993 2.187,-6.603 1.466,-1.61 3.448,-2.414 5.985,-2.414 2.167,0 3.963,0.495 5.406,1.485 1.424,1.012 2.27,2.332 2.517,4.004 z" /></g><g
           transform="translate(651.3477,88.5146)"
           id="g88"><path
             id="path90"
             style="fill:#9e9fa1;fill-opacity:1;fill-rule:nonzero;stroke:none"
             d="M 0,0 H 1.588 C 3.426,0 4.767,0.289 5.592,0.888 6.437,1.486 6.851,2.394 6.851,3.652 6.851,5.139 6.459,6.19 5.674,6.81 4.891,7.429 3.569,7.738 1.713,7.738 H 0 Z m -7.924,-15.538 v 29.467 h 8.873 c 3.446,0 5.86,-0.165 7.242,-0.475 1.363,-0.289 2.539,-0.784 3.55,-1.506 1.093,-0.805 1.96,-1.837 2.579,-3.075 0.578,-1.238 0.887,-2.62 0.887,-4.127 0,-2.269 -0.598,-4.127 -1.754,-5.571 -1.196,-1.424 -2.908,-2.373 -5.199,-2.827 l 8.502,-11.886 H 7.16 L 0,-4.003 v -11.535 z" /></g><g
           transform="translate(687.376,83.9961)"
           id="g92"><path
             id="path94"
             style="fill:#9e9fa1;fill-opacity:1;fill-rule:nonzero;stroke:none"
             d="M 0,0 H 8.419 L 5.263,9.698 C 5.18,10.008 5.015,10.482 4.85,11.143 4.685,11.803 4.458,12.649 4.188,13.66 4.003,12.958 3.839,12.257 3.653,11.597 3.487,10.937 3.302,10.317 3.116,9.698 Z M -11.886,-11.02 -1.155,18.447 H 9.472 L 20.223,-11.02 h -8.441 l -1.568,5.283 h -12.07 l -1.59,-5.283 z" /></g><g
           transform="translate(718.3906,72.9766)"
           id="g96"><path
             id="path98"
             style="fill:#9e9fa1;fill-opacity:1;fill-rule:nonzero;stroke:none"
             d="M 0,0 V 29.467 H 19.066 V 23.009 H 8.275 V 17.891 H 18.447 V 11.576 H 8.275 L 8.275,0 Z" /></g><g
           transform="translate(760.5479,112.6162)"
           id="g100"><path
             id="path102"
             style="fill:#9e9fa1;fill-opacity:1;fill-rule:nonzero;stroke:none"
             d="M 0,0 -6.541,-7.036 H -9.822 L -5.964,0 Z m -10.44,-10.173 h 8.563 V -39.64 h -8.563 z" /></g><g
           transform="translate(781.5547,83.9961)"
           id="g104"><path
             id="path106"
             style="fill:#9e9fa1;fill-opacity:1;fill-rule:nonzero;stroke:none"
             d="M 0,0 H 8.461 L 5.282,9.698 C 5.18,10.008 5.035,10.482 4.891,11.143 4.705,11.803 4.498,12.649 4.23,13.66 4.045,12.958 3.838,12.257 3.673,11.597 3.508,10.937 3.322,10.317 3.137,9.698 Z m -11.865,-11.02 10.73,29.467 H 9.492 l 10.75,-29.467 h -8.439 l -1.569,5.283 h -12.05 l -1.61,-5.283 z" /></g><g
           transform="translate(476.6719,51.207)"
           id="g108"><path
             id="path110"
             style="fill:#263d86;fill-opacity:1;fill-rule:nonzero;stroke:none"
             d="m 0,0 h 8.439 v -14.321 c 0,-2.105 0.063,-3.612 0.165,-4.539 0.103,-0.909 0.31,-1.672 0.578,-2.312 0.31,-0.743 0.908,-1.3 1.693,-1.713 0.824,-0.391 1.815,-0.577 2.971,-0.577 1.134,0 2.125,0.186 2.951,0.577 0.783,0.413 1.361,0.97 1.691,1.713 0.248,0.64 0.455,1.403 0.578,2.312 0.104,0.927 0.165,2.434 0.165,4.539 V -12.299 0 h 8.419 v -15.56 c 0,-3.239 -0.206,-5.612 -0.597,-7.16 -0.413,-1.527 -1.116,-2.847 -2.084,-3.92 -1.053,-1.197 -2.518,-2.085 -4.375,-2.683 -1.858,-0.598 -4.107,-0.907 -6.748,-0.907 -2.683,0 -4.932,0.309 -6.768,0.907 -1.857,0.598 -3.322,1.486 -4.396,2.683 -0.969,1.073 -1.651,2.393 -2.084,3.92 C 0.186,-21.172 0,-18.799 0,-15.56 v 3.055 z" /></g><g
           transform="translate(572.7891,21.7607)"
           id="g112"><path
             id="path114"
             style="fill:#263d86;fill-opacity:1;fill-rule:nonzero;stroke:none"
             d="M 0,0 V 29.446 H 8.172 L 19.914,14.3 c 0.227,-0.31 0.598,-0.929 1.135,-1.858 0.494,-0.928 1.072,-2.042 1.713,-3.322 -0.187,1.218 -0.311,2.291 -0.393,3.261 -0.082,0.949 -0.103,1.795 -0.103,2.517 v 14.548 h 8.13 V 0 h -8.13 L 10.504,15.208 c -0.227,0.31 -0.599,0.929 -1.114,1.856 -0.536,0.929 -1.094,2.023 -1.713,3.302 0.186,-1.237 0.289,-2.331 0.391,-3.28 0.063,-0.971 0.104,-1.796 0.104,-2.539 L 8.172,0 Z" /></g><g
           transform="translate(680.0713,32.7588)"
           id="g116"><path
             id="path118"
             style="fill:#263d86;fill-opacity:1;fill-rule:nonzero;stroke:none"
             d="M 0,0 H 8.46 L 5.282,9.719 C 5.18,10.008 5.056,10.504 4.891,11.164 4.705,11.804 4.499,12.649 4.23,13.682 4.044,12.959 3.858,12.278 3.714,11.617 3.508,10.957 3.322,10.338 3.157,9.719 Z M -11.845,-10.998 -1.114,18.448 H 9.492 l 10.751,-29.446 h -8.439 l -1.569,5.262 H -1.796 l -1.629,-5.262 z" /></g><g
           transform="translate(800.9512,21.7607)"
           id="g120"><path
             id="path122"
             style="fill:#263d86;fill-opacity:1;fill-rule:nonzero;stroke:none"
             d="m 0,0 h -7.902 l -1.837,12.731 c -0.124,0.909 -0.228,1.899 -0.351,2.993 -0.083,1.114 -0.207,2.311 -0.268,3.611 -0.206,-1.259 -0.599,-2.807 -1.197,-4.664 -0.125,-0.392 -0.207,-0.681 -0.269,-0.866 L -16.033,0 h -5.654 l -4.231,13.805 c -0.061,0.185 -0.144,0.474 -0.268,0.866 -0.598,1.857 -0.969,3.405 -1.156,4.643 -0.082,-1.114 -0.185,-2.208 -0.288,-3.301 -0.144,-1.115 -0.268,-2.188 -0.413,-3.282 L -29.858,0 h -7.883 l 4.766,29.446 h 8.42 l 4.684,-15.187 c 0.02,-0.104 0.082,-0.269 0.165,-0.517 0.433,-1.361 0.722,-2.517 0.825,-3.467 0.063,0.517 0.186,1.094 0.352,1.735 0.144,0.619 0.349,1.402 0.619,2.29 l 4.724,15.146 h 8.42 z" /></g><path
           id="path124"
           style="fill:#9e9fa1;fill-opacity:1;fill-rule:nonzero;stroke:none"
           d="m 471.225,386.712 h 51.051 V 187.026 h -51.051 z" /><g
           transform="translate(686.3437,343.874)"
           id="g126"><path
             id="path128"
             style="fill:#9e9fa1;fill-opacity:1;fill-rule:nonzero;stroke:none"
             d="m 0,0 c 42.221,13.805 76.928,-0.908 109.655,-17.479 l -0.598,47.957 c -43.354,19.933 -89.66,23.42 -131.177,6.913 -41.023,-16.282 -71.81,-48.741 -71.81,-94.53 0.289,-43.045 27.672,-74.966 63.969,-89.865 15.992,-6.562 34.006,-9.286 51.67,-9.286 36.049,0 70.717,11.37 84.005,24.68 l 6.376,6.376 v 75.73 H 32.459 v -38.113 h 25.176 v -16.673 c -16.715,-7.077 -45.377,-14.218 -73.255,-1.444 -18.593,8.502 -24.597,24.04 -24.741,48.74 0,28.043 15.228,48.761 40.361,56.994" /></g></g></g></g></svg>